<svg width="20" height="20" viewBox="0 0 20 20" fill="none" xmlns="http://www.w3.org/2000/svg">
<g clip-path="url(#clip0_5470_38412)">
<path d="M9.99984 6.66406V9.9974M9.99984 13.3307H10.0082M1.6665 7.09968V12.8951C1.6665 13.0989 1.6665 13.2008 1.68953 13.2968C1.70994 13.3818 1.74361 13.4631 1.7893 13.5376C1.84084 13.6217 1.9129 13.6938 2.05703 13.8379L6.15931 17.9402C6.30344 18.0843 6.3755 18.1564 6.4596 18.2079C6.53416 18.2536 6.61545 18.2873 6.70048 18.3077C6.79638 18.3307 6.8983 18.3307 7.10212 18.3307H12.8976C13.1014 18.3307 13.2033 18.3307 13.2992 18.3077C13.3842 18.2873 13.4655 18.2536 13.5401 18.2079C13.6242 18.1564 13.6962 18.0843 13.8404 17.9402L17.9426 13.8379C18.0868 13.6938 18.1588 13.6217 18.2104 13.5376C18.2561 13.4631 18.2897 13.3818 18.3101 13.2968C18.3332 13.2008 18.3332 13.0989 18.3332 12.8951V7.09968C18.3332 6.89585 18.3332 6.79394 18.3101 6.69804C18.2897 6.61301 18.2561 6.53172 18.2104 6.45716C18.1588 6.37306 18.0868 6.301 17.9426 6.15687L13.8404 2.05459C13.6962 1.91046 13.6242 1.8384 13.5401 1.78686C13.4655 1.74117 13.3842 1.7075 13.2992 1.68709C13.2033 1.66406 13.1014 1.66406 12.8976 1.66406H7.10212C6.8983 1.66406 6.79638 1.66406 6.70048 1.68709C6.61545 1.7075 6.53416 1.74117 6.4596 1.78686C6.3755 1.8384 6.30344 1.91046 6.15931 2.05459L2.05703 6.15687C1.9129 6.301 1.84084 6.37306 1.7893 6.45716C1.74361 6.53172 1.70994 6.61301 1.68953 6.69804C1.6665 6.79394 1.6665 6.89585 1.6665 7.09968Z" stroke="white" stroke-width="2" stroke-linecap="round" stroke-linejoin="round"/>
</g>
<defs>
<clipPath id="clip0_5470_38412">
<rect width="20" height="20" fill="white"/>
</clipPath>
</defs>
</svg>
