<svg width="30" height="30" viewBox="0 0 30 30" fill="none" xmlns="http://www.w3.org/2000/svg">
<circle cx="15" cy="15" r="15" fill="#F5F6F7"/>
<path d="M20.1406 15.3594C20.1406 15.5156 20.1094 15.6641 20.0469 15.8047C19.9896 15.9401 19.8958 16.0703 19.7656 16.1953L13.7578 22.0781C13.5547 22.276 13.3073 22.375 13.0156 22.375C12.8281 22.375 12.6536 22.3281 12.4922 22.2344C12.3307 22.1406 12.2005 22.0156 12.1016 21.8594C12.0078 21.7031 11.9609 21.526 11.9609 21.3281C11.9609 21.0417 12.0703 20.7865 12.2891 20.5625L17.6406 15.3594L12.2891 10.1562C12.0703 9.9375 11.9609 9.68229 11.9609 9.39062C11.9609 9.19792 12.0078 9.02344 12.1016 8.86719C12.2005 8.70573 12.3307 8.57812 12.4922 8.48438C12.6536 8.39062 12.8281 8.34375 13.0156 8.34375C13.3073 8.34375 13.5547 8.44271 13.7578 8.64062L19.7656 14.5234C19.8906 14.6484 19.9844 14.7786 20.0469 14.9141C20.1094 15.0495 20.1406 15.1979 20.1406 15.3594Z" fill="#3C3C43" fill-opacity="0.6"/>
</svg>
