<svg width="15" height="15" viewBox="0 0 15 15" fill="none" xmlns="http://www.w3.org/2000/svg">
<path d="M7.44238 14.79C3.48438 14.79 0.223633 11.5293 0.223633 7.56445C0.223633 3.60645 3.47754 0.345703 7.44238 0.345703C11.4004 0.345703 14.6611 3.60645 14.6611 7.56445C14.6611 11.5293 11.4072 14.79 7.44238 14.79ZM7.44238 12.9922C10.4502 12.9922 12.8633 10.5723 12.8633 7.56445C12.8633 4.56348 10.4434 2.14355 7.44238 2.14355C4.43457 2.14355 2.02832 4.56348 2.02832 7.56445C2.02832 10.5723 4.44141 12.9922 7.44238 12.9922ZM4.19531 8.61035C3.82617 8.61035 3.53906 8.31641 3.53906 7.94727C3.53906 7.57812 3.82617 7.29102 4.19531 7.29102H6.7793V3.69531C6.7793 3.32617 7.07324 3.03906 7.44238 3.03906C7.81152 3.03906 8.09863 3.32617 8.09863 3.69531V7.94727C8.09863 8.31641 7.81152 8.61035 7.44238 8.61035H4.19531Z" fill="#0CBC70"/>
</svg>
