<svg xmlns="http://www.w3.org/2000/svg" width="16" height="16" viewBox="0 0 16 16" fill="none">
<path d="M8.00064 5.33366C7.90864 5.33366 7.83397 5.40833 7.83464 5.50033C7.83464 5.59233 7.9093 5.66699 8.0013 5.66699C8.0933 5.66699 8.16797 5.59233 8.16797 5.50033C8.16797 5.40833 8.0933 5.33366 8.00064 5.33366" stroke="#636363" stroke-width="1.33333" stroke-linecap="round" stroke-linejoin="round"/>
<path fill-rule="evenodd" clip-rule="evenodd" d="M8 14V14C4.686 14 2 11.314 2 8V8C2 4.686 4.686 2 8 2V2C11.314 2 14 4.686 14 8V8C14 11.314 11.314 14 8 14Z" stroke="#636363" stroke-width="1.33333" stroke-linecap="round" stroke-linejoin="round"/>
<path d="M8.0013 8V11.3333" stroke="#636363" stroke-width="1.33333" stroke-linecap="round" stroke-linejoin="round"/>
</svg>