<svg width="32" height="32" viewBox="0 0 32 32" fill="none" xmlns="http://www.w3.org/2000/svg">
<path d="M22.1056 19.9329H20.9613L20.5557 19.5418C21.9752 17.8906 22.8298 15.7469 22.8298 13.4149C22.8298 8.21498 18.6148 4 13.4149 4C8.21498 4 4 8.21498 4 13.4149C4 18.6148 8.21498 22.8298 13.4149 22.8298C15.7469 22.8298 17.8906 21.9752 19.5418 20.5557L19.9329 20.9613V22.1056L27.1751 29.3333L29.3333 27.1751L22.1056 19.9329ZM13.4149 19.9329C9.80827 19.9329 6.89689 17.0215 6.89689 13.4149C6.89689 9.80827 9.80827 6.89689 13.4149 6.89689C17.0215 6.89689 19.9329 9.80827 19.9329 13.4149C19.9329 17.0215 17.0215 19.9329 13.4149 19.9329Z" fill="#08D17A"/>
</svg>
