<svg xmlns="http://www.w3.org/2000/svg" width="15" height="15" fill="none" viewBox="0 0 15 15">
  <path fill="black" d="M13.634 1.78c.754.754.893 1.786.893 3.12v5.617c0 1.34-.139 2.373-.893 3.128-.755.747-1.795.893-3.128.893H4.89c-1.333 0-2.373-.146-3.135-.893-.747-.755-.886-1.788-.886-3.128V4.885c0-1.319.139-2.351.893-3.106.747-.747 1.795-.893 3.106-.893h5.64c1.332 0 2.372.139 3.127.893Zm-.542 2.922c0-.762-.095-1.465-.506-1.868-.41-.41-1.12-.52-1.875-.52H4.698c-.769 0-1.487.103-1.897.513-.403.41-.498 1.113-.498 1.89v6.005c0 .762.095 1.458.506 1.868.41.41 1.12.512 1.875.512h6.027c.755 0 1.465-.102 1.875-.512.403-.41.506-1.106.506-1.868v-6.02Zm-8.775 3.01c0-.41.279-.696.689-.696h2.007V5.01c0-.41.285-.696.68-.696a.67.67 0 0 1 .697.696v2.007h2.014c.403 0 .681.286.681.696 0 .395-.286.674-.681.674H8.39V10.4c0 .403-.293.688-.696.688-.396 0-.681-.285-.681-.688V8.386H5.006c-.403 0-.689-.279-.689-.674Z"/>
</svg>
