<svg width="12" height="12" viewBox="0 0 12 12" fill="none" xmlns="http://www.w3.org/2000/svg">
<path fill-rule="evenodd" clip-rule="evenodd" d="M2.04413 0.350906C1.57663 -0.116969 0.818672 -0.116968 0.351176 0.350906C-0.11632 0.818781 -0.11632 1.57736 0.351176 2.04523L4.30615 6.00535L0.350906 9.95546C-0.116969 10.423 -0.116968 11.1809 0.350906 11.6484C0.818781 12.1159 1.57736 12.1159 2.04523 11.6484L5.9991 7.69968L9.94338 11.6491C10.4109 12.117 11.1688 12.117 11.6363 11.6491C12.1038 11.1812 12.1038 10.4226 11.6363 9.95477L7.69343 6.00672L11.6491 2.05619C12.117 1.58869 12.117 0.830729 11.6491 0.363233C11.1812 -0.104264 10.4226 -0.104263 9.95477 0.363233L6.00047 4.3124L2.04413 0.350906Z" fill="white"/>
</svg>
