<svg width="73" height="43" viewBox="0 0 73 43" fill="none" xmlns="http://www.w3.org/2000/svg">
<path d="M19.9297 8.99219C19.4219 8.99219 18.9922 8.66016 18.7773 8.17188C18.543 7.66406 18.4062 6.90234 18.4062 6.08203C18.4062 2.91797 21.0234 0.398438 24.2461 0.398438C25.5742 0.398438 26.9219 0.789062 27.8008 1.51172C28.1719 1.82422 28.3867 2.21484 28.3867 2.64453C28.3867 2.99609 28.2109 3.32812 27.8789 3.5625L20.75 8.69922C20.4375 8.91406 20.2422 8.99219 19.9297 8.99219ZM52.9375 8.99219C52.625 8.99219 52.4102 8.91406 52.1172 8.69922L44.9883 3.5625C44.6562 3.32812 44.4609 2.99609 44.4609 2.64453C44.4609 2.21484 44.6758 1.82422 45.0469 1.51172C45.9453 0.789062 47.293 0.398438 48.6016 0.398438C51.8438 0.398438 54.4414 2.91797 54.4414 6.08203C54.4414 6.90234 54.3242 7.66406 54.0898 8.17188C53.8555 8.64062 53.4453 8.99219 52.9375 8.99219ZM19.793 41.5898C19.1094 40.9062 19.0898 39.7734 19.8125 39.0703L22.8789 36.0234C19.5586 32.6055 17.5273 27.957 17.5273 22.8398C17.5273 12.4102 25.9844 3.93359 36.4336 3.93359C46.8633 3.93359 55.3398 12.4102 55.3398 22.8398C55.3398 27.957 53.2891 32.6055 49.9883 36.0234L53.0352 39.0703C53.7578 39.7734 53.7578 40.9062 53.0547 41.5898C52.3125 42.3125 51.1797 42.293 50.4375 41.5508L47.2344 38.3672C44.168 40.4961 40.4375 41.7461 36.4336 41.7461C32.4102 41.7461 28.6992 40.4961 25.6328 38.3672L22.4297 41.5508C21.6875 42.293 20.5352 42.3125 19.793 41.5898ZM36.4336 37.4492C44.5 37.4492 51.0234 30.9258 51.0234 22.8398C51.0234 14.7734 44.5 8.25 36.4336 8.25C28.3477 8.25 21.8047 14.7734 21.8047 22.8398C21.8047 30.9258 28.3477 37.4492 36.4336 37.4492ZM8.38672 36.2383C7.66406 37.0977 6.39453 37.1758 5.41797 36.1406C2.21484 32.7227 0.496094 27.9961 0.496094 22.8984C0.496094 17.8203 2.29297 13.0156 5.41797 9.65625C6.375 8.62109 7.66406 8.69922 8.38672 9.55859C9.08984 10.3789 8.875 11.4141 8.09375 12.2734C5.59375 15.0273 4.20703 18.7969 4.20703 22.8984C4.20703 27 5.61328 30.75 8.09375 33.5234C8.85547 34.3828 9.08984 35.418 8.38672 36.2383ZM64.4609 36.2383C63.7773 35.418 63.9922 34.3828 64.7734 33.5234C67.2539 30.75 68.6406 27 68.6406 22.8984C68.6406 18.7969 67.2734 15.0469 64.7734 12.2734C63.9922 11.4141 63.7773 10.3789 64.4609 9.55859C65.2031 8.69922 66.4727 8.62109 67.4297 9.65625C70.5547 13.0156 72.3516 17.8203 72.3516 22.8984C72.3516 27.9961 70.6523 32.7227 67.4297 36.1406C66.4531 37.1758 65.1836 37.0977 64.4609 36.2383ZM28.2109 25.4375C27.293 25.4375 26.5703 24.7148 26.5703 23.7969C26.5703 22.8984 27.293 22.1758 28.2109 22.1758H34.793V12.7422C34.793 11.8438 35.4961 11.1406 36.4141 11.1406C37.332 11.1406 38.0547 11.8438 38.0547 12.7422V23.7969C38.0547 24.7148 37.332 25.4375 36.4141 25.4375H28.2109ZM14.2656 30.6133C13.543 31.4922 12.1758 31.5312 11.2969 30.4961C9.63672 28.543 8.71875 25.8086 8.71875 22.8984C8.71875 19.9883 9.63672 17.2539 11.2969 15.2812C12.1758 14.2656 13.543 14.3047 14.2656 15.1641C14.9297 15.9844 14.6758 16.9609 14.0117 17.8594C13.0156 19.168 12.4297 21.043 12.4297 22.8984C12.4297 24.7539 13.0156 26.6289 14.0117 27.918C14.6758 28.8164 14.9297 29.8125 14.2656 30.6133ZM58.6016 30.6133C57.9375 29.8125 58.1914 28.8164 58.8359 27.918C59.8516 26.6289 60.4375 24.7539 60.4375 22.8984C60.4375 21.043 59.8516 19.168 58.8359 17.8594C58.1914 16.9609 57.9375 15.9844 58.6016 15.1641C59.3242 14.3047 60.6914 14.2656 61.5703 15.2812C63.2305 17.2539 64.1484 19.9883 64.1484 22.8984C64.1484 25.8086 63.2305 28.543 61.5703 30.4961C60.6914 31.5312 59.3242 31.4922 58.6016 30.6133Z" fill="#99A2AD"/>
</svg>
