<svg width="20" height="20" viewBox="0 0 20 20" fill="none" xmlns="http://www.w3.org/2000/svg">
<g id="ph:bell-fill">
<path id="Vector" d="M17.3272 13.7453C16.8936 12.9984 16.2491 10.8852 16.2491 8.125C16.2491 6.4674 15.5906 4.87769 14.4185 3.70558C13.2464 2.53348 11.6567 1.875 9.99909 1.875C8.34149 1.875 6.75178 2.53348 5.57968 3.70558C4.40757 4.87769 3.74909 6.4674 3.74909 8.125C3.74909 10.8859 3.10378 12.9984 2.67019 13.7453C2.55946 13.9352 2.50076 14.1509 2.50001 14.3707C2.49925 14.5905 2.55647 14.8066 2.66589 14.9973C2.77531 15.1879 2.93306 15.3463 3.12324 15.4565C3.31342 15.5667 3.52929 15.6248 3.74909 15.625H6.93738C7.08157 16.3306 7.46505 16.9647 8.02295 17.4201C8.58085 17.8756 9.27892 18.1243 9.99909 18.1243C10.7193 18.1243 11.4173 17.8756 11.9752 17.4201C12.5331 16.9647 12.9166 16.3306 13.0608 15.625H16.2491C16.4688 15.6247 16.6846 15.5665 16.8747 15.4562C17.0647 15.346 17.2224 15.1875 17.3317 14.9969C17.441 14.8063 17.4982 14.5903 17.4974 14.3705C17.4966 14.1508 17.4379 13.9351 17.3272 13.7453Z" fill="#CCCCCC"/>
</g>
</svg>
