<svg width="22" height="22" viewBox="0 0 22 22" fill="none" xmlns="http://www.w3.org/2000/svg">
<path d="M12.8333 19.25H9.16667M7.91364 2.78088C8.81795 2.1678 9.89173 1.83331 11 1.83331C12.4587 1.83331 13.8576 2.41278 14.8891 3.44423C15.9205 4.47568 16.5 5.87462 16.5 7.33331C16.5 9.25902 16.7477 10.7719 17.0944 11.9464M5.73711 5.73578C5.58127 6.24913 5.5 6.78703 5.5 7.33331C5.5 10.166 4.78543 12.1054 3.98719 13.3883C3.31387 14.4704 2.9772 15.0114 2.98955 15.1623C3.00322 15.3295 3.03862 15.3932 3.17329 15.4931C3.29492 15.5833 3.84321 15.5833 4.93978 15.5833H15.5833M19.25 19.25L2.75 2.74998" stroke="black" stroke-opacity="0.3" stroke-width="2" stroke-linecap="round" stroke-linejoin="round"/>
</svg>
