<svg width="20" height="21" viewBox="0 0 20 21" fill="none" xmlns="http://www.w3.org/2000/svg">
<path d="M11.8333 19.25H8.16664M15.5 7.33331C15.5 5.87462 14.9205 4.47568 13.8891 3.44423C12.8576 2.41278 11.4587 1.83331 9.99998 1.83331C8.54129 1.83331 7.14234 2.41278 6.11089 3.44423C5.07944 4.47568 4.49998 5.87462 4.49998 7.33331C4.49998 10.166 3.78541 12.1054 2.98717 13.3883C2.31384 14.4704 1.97718 15.0114 1.98952 15.1623C2.00319 15.3295 2.0386 15.3932 2.17327 15.4931C2.2949 15.5833 2.84318 15.5833 3.93976 15.5833H16.0602C17.1568 15.5833 17.7051 15.5833 17.8267 15.4931C17.9614 15.3932 17.9968 15.3295 18.0104 15.1623C18.0228 15.0114 17.6861 14.4704 17.0128 13.3883C16.2145 12.1054 15.5 10.166 15.5 7.33331Z" stroke="#2275C8" stroke-width="2" stroke-linecap="round" stroke-linejoin="round"/>
</svg>
