<svg width="32" height="32" viewBox="0 0 32 32" fill="none" xmlns="http://www.w3.org/2000/svg">
<path d="M5.31975 5.32068C4.47812 6.16214 3.81048 7.16115 3.35498 8.26067C2.89948 9.36018 2.66504 10.5386 2.66504 11.7288C2.66504 12.9189 2.89948 14.0974 3.35498 15.1969C3.81048 16.2964 4.47812 17.2954 5.31975 18.1369L8.73847 21.5543L9.39848 21.4276H9.39981L9.41848 21.4236L9.51715 21.3996C9.60782 21.3769 9.75048 21.3383 9.93715 21.2783C10.3132 21.1583 10.8665 20.9542 11.5505 20.6249C12.9159 19.9676 14.8012 18.8062 16.8026 16.8035C18.804 14.8022 19.9653 12.9168 20.624 11.5514C20.9533 10.8688 21.1573 10.3141 21.2773 9.93808C21.3322 9.76707 21.3807 9.59406 21.4227 9.41941L21.4267 9.40074L21.5533 8.7394L18.1359 5.32201C17.2945 4.48058 16.2956 3.81311 15.1962 3.35773C14.0968 2.90235 12.9185 2.66797 11.7285 2.66797C10.5385 2.66797 9.36023 2.90235 8.26084 3.35773C7.16145 3.81311 6.16252 4.48058 5.32108 5.32201L5.31975 5.32068ZM23.2254 10.4101L23.1827 10.5474C23.036 11.0048 22.7987 11.6461 22.4253 12.4195C21.6787 13.9688 20.392 16.0435 18.2173 18.2182C16.0412 20.3929 13.9679 21.6809 12.4185 22.4276C11.7695 22.7434 11.0979 23.0104 10.4092 23.2263L13.8639 26.6797C14.7021 27.5352 15.7016 28.216 16.8046 28.6828C17.9076 29.1497 19.0922 29.3932 20.2899 29.3993C21.4876 29.4055 22.6746 29.1741 23.7823 28.7186C24.8901 28.2631 25.8965 27.5926 26.7435 26.7457C27.5904 25.8989 28.2611 24.8925 28.7167 23.7848C29.1723 22.6771 29.4037 21.4901 29.3977 20.2924C29.3917 19.0947 29.1483 17.9101 28.6816 16.8071C28.2149 15.704 27.5342 14.7045 26.6787 13.8661L23.2254 10.4101Z" fill="#838993"/>
</svg>
