<svg width="24" height="24" viewBox="0 0 24 24" fill="none" xmlns="http://www.w3.org/2000/svg">
<path fill-rule="evenodd" clip-rule="evenodd" d="M8.22738 3.10156C6.65773 3.10156 5.90807 3.22823 5.14592 3.63583C4.49639 3.9832 3.98125 4.49834 3.63387 5.14787C3.22627 5.91002 3.09961 6.65968 3.09961 8.22933V15.7738C3.09961 17.3434 3.22627 18.0931 3.63387 18.8553C3.98125 19.5048 4.49639 20.0199 5.14592 20.3673C5.90807 20.7749 6.65773 20.9016 8.22738 20.9016H15.7718C17.3415 20.9016 18.0912 20.7749 18.8533 20.3673C19.5028 20.0199 20.018 19.5048 20.3653 18.8553C20.7729 18.0931 20.8996 17.3434 20.8996 15.7738V8.22933C20.8996 6.65968 20.7729 5.91002 20.3653 5.14787C20.018 4.49834 19.5028 3.9832 18.8533 3.63583C18.0912 3.22823 17.3415 3.10156 15.7718 3.10156H8.22738ZM5.9948 5.22309C6.35678 5.0295 6.74071 4.90156 8.22738 4.90156H15.7718C17.2585 4.90156 17.6424 5.0295 18.0044 5.22309C18.3403 5.40271 18.5985 5.6609 18.7781 5.99675C18.966 6.34813 19.0921 6.72021 19.0993 8.10159H4.89994C4.90716 6.72021 5.03322 6.34813 5.22114 5.99675C5.40075 5.6609 5.65895 5.40271 5.9948 5.22309ZM4.89961 9.90159V15.7738C4.89961 17.2605 5.02755 17.6444 5.22114 18.0064C5.40075 18.3422 5.65895 18.6004 5.9948 18.78C6.35678 18.9736 6.74071 19.1016 8.22738 19.1016H15.7718C17.2585 19.1016 17.6424 18.9736 18.0044 18.78C18.3403 18.6004 18.5985 18.3422 18.7781 18.0064C18.9717 17.6444 19.0996 17.2605 19.0996 15.7738V9.90159H4.89961Z" fill="black"/>
</svg>
