<svg width="24" height="24" viewBox="0 0 24 24" fill="none" xmlns="http://www.w3.org/2000/svg">
<g id="Icon Pack">
<path id="Vector" d="M6.1119 2.22092C6.07367 2.8902 6.16755 3.56055 6.3877 4.19025C6.60786 4.81995 6.94957 5.39554 7.39159 5.88118C6.53247 6.13879 5.76331 6.6516 5.17742 7.3574C4.59153 8.0632 4.21409 8.93165 4.09091 9.85739C3.79386 12.0789 4.22965 14.34 5.32641 16.2678L5.64205 16.8242C5.65401 16.8447 5.66695 16.8646 5.68083 16.8837L6.95781 18.6813C7.22828 19.0622 7.57491 19.377 7.97356 19.6036C8.3722 19.8302 8.81329 19.9632 9.2661 19.9934C9.71892 20.0236 10.1726 19.9501 10.5955 19.7783C11.0184 19.6064 11.4004 19.3402 11.7149 18.9981C11.7517 18.9582 11.7958 18.9263 11.8446 18.9046C11.8934 18.8829 11.946 18.8717 11.999 18.8717C12.0521 18.8717 12.1046 18.8829 12.1534 18.9046C12.2022 18.9263 12.2463 18.9582 12.2831 18.9981C12.5976 19.3402 12.9796 19.6064 13.4025 19.7783C13.8254 19.9501 14.2791 20.0236 14.7319 19.9934C15.1847 19.9632 15.6258 19.8302 16.0245 19.6036C16.4231 19.377 16.7697 19.0622 17.0402 18.6813L18.3172 16.8827C18.3308 16.8636 18.3434 16.8438 18.3551 16.8233L18.6716 16.2669C19.7689 14.34 20.2056 12.0796 19.9098 9.85833C19.8225 9.20382 19.6076 8.57502 19.2786 8.01085C18.9495 7.44668 18.5132 6.95916 17.9966 6.57846C17.4801 6.19777 16.8944 5.93201 16.2756 5.79763C15.6569 5.66326 15.0184 5.66312 14.3997 5.79724L12.6853 6.16884H12.6826C12.7096 5.4332 12.8197 4.64098 13.0352 3.96381C13.2967 3.14518 13.6593 2.65287 14.0633 2.47745C14.2289 2.40516 14.3603 2.26702 14.4285 2.09343C14.4968 1.91983 14.4963 1.72499 14.4272 1.55177C14.358 1.37856 14.226 1.24115 14.06 1.16979C13.894 1.09842 13.7077 1.09894 13.542 1.17122C12.5933 1.58525 12.054 2.56705 11.7519 3.51583L11.7104 3.64975C11.4883 3.20097 11.2015 2.79062 10.86 2.43312C10.3923 1.94345 9.83046 1.56327 9.21169 1.31775C8.59292 1.07224 7.93133 0.967005 7.27074 1.00901C6.96927 1.02715 6.68466 1.16038 6.47089 1.38342C6.25711 1.60647 6.12905 1.9038 6.111 2.21903L6.1119 2.22092Z" fill="#CCCCCC"/>
</g>
</svg>
