<svg width="25" height="24" viewBox="0 0 25 24" fill="none" xmlns="http://www.w3.org/2000/svg">
<path d="M12.8574 5.61L10.0974 8.35L13.4074 11.66L12.3474 12.72L9.03742 9.41L7.26742 11.18L10.5774 14.49L9.51742 15.55L6.20742 12.24L4.20742 14.24C3.88961 14.5478 3.68286 14.9524 3.61952 15.3903C3.55619 15.8282 3.63986 16.2747 3.85742 16.66L4.85742 18.55L2.60742 20.84L4.01742 22.25L6.30742 20L8.19742 21C8.50223 21.1728 8.84707 21.2624 9.19742 21.26C9.46133 21.2602 9.72268 21.2082 9.96639 21.1069C10.2101 21.0057 10.4314 20.8572 10.6174 20.67L19.2474 12L12.8574 5.61ZM20.6574 9.2L18.8674 7.4L20.2874 5.99L21.6974 7.4L23.1074 5.99L18.8674 1.75L17.4574 3.16L18.8674 4.58L17.4574 5.99L15.6574 4.2L13.9174 2.45L12.5074 3.87L13.5374 4.9V4.91L19.9474 11.32H19.9574L20.9874 12.35L22.4074 10.94L20.6674 9.2H20.6574Z" fill="white"/>
</svg>
