<svg width="24" height="24" viewBox="0 0 24 24" fill="none" xmlns="http://www.w3.org/2000/svg">
<g id="Icon Pack">
<path id="Vector" d="M15.97 5.055C16.585 5.41 16.625 6.24 16.125 6.745L6.745 16.125C6.245 16.625 5.41 16.59 5.055 15.97C4.385 14.8 4 13.445 4 12C4 7.58 7.58 4 12 4C13.445 4 14.8 4.385 15.97 5.055ZM18.945 8.03C19.615 9.2 20 10.555 20 12C20 16.42 16.42 20 12 20C10.555 20 9.2 19.615 8.03 18.945C7.415 18.59 7.375 17.76 7.875 17.255L17.255 7.875C17.755 7.375 18.59 7.41 18.945 8.03Z" fill="#CCCCCC"/>
</g>
</svg>
