<svg width="33" height="32" viewBox="0 0 33 32" fill="none" xmlns="http://www.w3.org/2000/svg">
<path d="M12.2334 14.9369C10.8189 14.9369 9.4623 14.375 8.46209 13.3748C7.46188 12.3746 6.89997 11.018 6.89997 9.6035V5.33677C6.89997 5.05386 7.01235 4.78255 7.21239 4.58251C7.41243 4.38247 7.68375 4.27008 7.96665 4.27008H9.03333C9.31623 4.27008 9.58755 4.1577 9.78759 3.95766C9.98763 3.75762 10.1 3.4863 10.1 3.2034C10.1 2.9205 9.98763 2.64918 9.78759 2.44914C9.58755 2.2491 9.31623 2.13672 9.03333 2.13672H7.96665C7.11794 2.13672 6.304 2.47387 5.70387 3.07399C5.10375 3.67412 4.7666 4.48806 4.7666 5.33677V9.6035C4.76797 10.8086 5.06183 11.9953 5.62293 13.0618C6.18404 14.1282 6.99562 15.0426 7.98798 15.7263C8.94141 16.5668 9.71463 17.5919 10.261 18.7395C10.8073 19.8872 11.1154 21.1337 11.1667 22.4037C11.1667 24.384 11.9534 26.2832 13.3537 27.6835C14.754 29.0838 16.6532 29.8705 18.6335 29.8705C20.6138 29.8705 22.513 29.0838 23.9133 27.6835C25.3136 26.2832 26.1003 24.384 26.1003 22.4037V21.1877C27.1058 20.928 27.9821 20.3106 28.5649 19.4511C29.1478 18.5916 29.3971 17.549 29.2663 16.5188C29.1354 15.4886 28.6333 14.5415 27.8541 13.855C27.0749 13.1684 26.0721 12.7897 25.0336 12.7897C23.9951 12.7897 22.9922 13.1684 22.213 13.855C21.4338 14.5415 20.9317 15.4886 20.8008 16.5188C20.67 17.549 20.9194 18.5916 21.5022 19.4511C22.0851 20.3106 22.9614 20.928 23.9669 21.1877V22.4037C23.9669 23.8182 23.405 25.1748 22.4048 26.175C21.4046 27.1752 20.048 27.7371 18.6335 27.7371C17.219 27.7371 15.8624 27.1752 14.8622 26.175C13.862 25.1748 13.3001 23.8182 13.3001 22.4037C13.3541 21.1321 13.6655 19.8847 14.2155 18.7369C14.7656 17.5892 15.5428 16.5649 16.5001 15.7263C17.4885 15.0402 18.296 14.1248 18.8533 13.0585C19.4106 11.9922 19.7012 10.8067 19.7002 9.6035V5.33677C19.7002 4.48806 19.363 3.67412 18.7629 3.07399C18.1628 2.47387 17.3488 2.13672 16.5001 2.13672H15.4334C15.1505 2.13672 14.8792 2.2491 14.6792 2.44914C14.4791 2.64918 14.3667 2.9205 14.3667 3.2034C14.3667 3.4863 14.4791 3.75762 14.6792 3.95766C14.8792 4.1577 15.1505 4.27008 15.4334 4.27008H16.5001C16.783 4.27008 17.0543 4.38247 17.2544 4.58251C17.4544 4.78255 17.5668 5.05386 17.5668 5.33677V9.6035C17.5668 10.3039 17.4288 10.9974 17.1608 11.6445C16.8928 12.2916 16.4999 12.8795 16.0047 13.3748C15.5094 13.87 14.9215 14.2629 14.2744 14.5309C13.6273 14.799 12.9338 14.9369 12.2334 14.9369ZM25.0336 19.2036C24.4678 19.2036 23.9251 18.9789 23.5251 18.5788C23.125 18.1787 22.9002 17.6361 22.9002 17.0703C22.9002 16.5045 23.125 15.9618 23.5251 15.5618C23.9251 15.1617 24.4678 14.9369 25.0336 14.9369C25.5994 14.9369 26.142 15.1617 26.5421 15.5618C26.9422 15.9618 27.1669 16.5045 27.1669 17.0703C27.1669 17.6361 26.9422 18.1787 26.5421 18.5788C26.142 18.9789 25.5994 19.2036 25.0336 19.2036Z" fill="#838993"/>
</svg>
