<svg width="24" height="24" viewBox="0 0 24 24" fill="none" xmlns="http://www.w3.org/2000/svg">
<path d="M11.5052 15.7093C10.5762 15.7093 10.0628 15.0492 10.0628 14.1568V13.9246C10.0628 12.4089 10.8207 11.4065 12.3486 10.502C13.8644 9.58518 14.3778 8.91287 14.3778 7.7394C14.3778 6.40701 13.3388 5.47801 11.8352 5.47801C10.4784 5.47801 9.57385 6.15031 9.18269 7.38491C8.91377 8.14278 8.46149 8.44837 7.78919 8.44837C6.94575 8.44837 6.44458 7.93498 6.44458 7.11599C6.44458 6.59037 6.55459 6.13809 6.78684 5.67359C7.54471 4.01117 9.45161 2.98438 11.9697 2.98438C15.2823 2.98438 17.5559 4.86683 17.5559 7.62938C17.5559 9.49961 16.6269 10.7831 14.9645 11.7732C13.3632 12.7022 12.972 13.289 12.8743 14.4013C12.752 15.2081 12.3364 15.7093 11.5052 15.7093ZM11.5296 21.0143C10.5395 21.0143 9.74498 20.2443 9.74498 19.2786C9.74498 18.3129 10.5395 17.555 11.5296 17.555C12.5198 17.555 13.3021 18.3129 13.3021 19.2786C13.3021 20.2443 12.5198 21.0143 11.5296 21.0143Z" fill="#E6E6E6"/>
</svg>
