<svg width="24" height="24" viewBox="0 0 24 24" fill="none" xmlns="http://www.w3.org/2000/svg">
<path fill-rule="evenodd" clip-rule="evenodd" d="M17.6566 6.34363C18.2814 6.96847 18.2814 7.98153 17.6566 8.60637L14.2626 12.0003L17.6569 15.3946C18.2817 16.0194 18.2817 17.0325 17.6569 17.6573C17.032 18.2822 16.019 18.2822 15.3941 17.6573L11.9999 14.2631L8.60564 17.6573C7.9808 18.2822 6.96774 18.2822 6.3429 17.6573C5.71806 17.0325 5.71806 16.0194 6.3429 15.3946L9.73715 12.0003L6.34317 8.60637C5.71834 7.98153 5.71834 6.96847 6.34317 6.34363C6.96801 5.71879 7.98108 5.71879 8.60592 6.34363L11.9999 9.7376L15.3939 6.34363C16.0187 5.71879 17.0318 5.71879 17.6566 6.34363Z" fill="#C94450"/>
</svg>
