<svg width="28" height="28" viewBox="0 0 28 28" fill="none" xmlns="http://www.w3.org/2000/svg">
<path d="M19.5571 4.43166C20.4091 4.92349 20.4645 6.07339 19.7718 6.77302L6.7766 19.7682C6.08389 20.4609 4.92707 20.4124 4.43525 19.5535C3.50702 17.9326 2.97363 16.0553 2.97363 14.0534C2.97363 7.92984 7.93342 2.97005 14.057 2.97005C16.0589 2.97005 17.9361 3.50343 19.5571 4.43166ZM23.6787 8.55328C24.6069 10.1742 25.1403 12.0515 25.1403 14.0534C25.1403 20.1769 20.1805 25.1367 14.057 25.1367C12.055 25.1367 10.1778 24.6033 8.55686 23.6751C7.70483 23.1833 7.64941 22.0334 8.34212 21.3338L21.3373 8.33854C22.03 7.64583 23.1869 7.69432 23.6787 8.55328Z" fill="#CCCCCC"/>
</svg>
