<svg width="24" height="24" viewBox="0 0 24 24" fill="none" xmlns="http://www.w3.org/2000/svg">
<g id="Icon Pack">
<path id="Vector" d="M12 4C7.58192 4 4 7.58192 4 12C4 16.4112 7.58923 20 12 20C16.4177 20 20 16.4177 20 12C20 7.58885 16.4112 4 12 4ZM16.1538 13.2308H11.5385C11.4977 13.2308 11.4585 13.2146 11.4297 13.1857C11.4008 13.1569 11.3846 13.1177 11.3846 13.0769V6.61538C11.3846 6.57458 11.4008 6.53545 11.4297 6.5066C11.4585 6.47775 11.4977 6.46154 11.5385 6.46154H12.4615C12.5023 6.46154 12.5415 6.47775 12.5703 6.5066C12.5992 6.53545 12.6154 6.57458 12.6154 6.61538V12H16.1538C16.1946 12 16.2338 12.0162 16.2626 12.0451C16.2915 12.0739 16.3077 12.113 16.3077 12.1538V13.0769C16.3077 13.1177 16.2915 13.1569 16.2626 13.1857C16.2338 13.2146 16.1946 13.2308 16.1538 13.2308Z" fill="#CCCCCC"/>
</g>
</svg>
